<?xml version="1.0" encoding="UTF-8" standalone="no"?>

<svg
   xmlns:dc="http://purl.org/dc/elements/1.1/"
   xmlns:cc="http://creativecommons.org/ns#"
   xmlns:rdf="http://www.w3.org/1999/02/22-rdf-syntax-ns#"
   xmlns:svg="http://www.w3.org/2000/svg"
   xmlns="http://www.w3.org/2000/svg"
   viewBox="-200 -50 400 300"
   width="1200px" 
   height="900px" >
   <rect
      style="fill:#80bfff;"
      id="waterbath"
      width="125"
      height="55"
      x="-55"
      y="175" />
   <line
      style="stroke:#000000;stroke-width:1.4"
      id="bath_l"
      x1="-55"
      y1="160"
      x2="-55"
      y2="230"  />
   <line
      style="stroke:#000000;stroke-width:1.4"
      id="bath_b"
      x1="-55"
      y1="230"
      x2="70"
      y2="230"  />
   <line
      style="stroke:#000000;stroke-width:1.4"
      id="bath_r"
      x1="70"
      y1="160"
      x2="70"
      y2="230"  />
   <rect
      style="fill:#80bfff;stroke:none;"
      id="tubefill"
      width="15"
      height="200"
      x="0"
      y="0" />
   <g
     id="allBubbles">
   </g>       
   <rect
      style="fill:#ffffff;stroke:none;"
      id="gasfill"
      width="15"
      height="20"
      x="0"
      y="0" />
   <line
      style="stroke:#000000;stroke-width:1.0"
      id="tube_l"
      x1="0"
      y1="0"
      x2="0"
      y2="200"  />
   <line
      style="stroke:#000000;stroke-width:1.0"
      id="tube_r"
      x1="15"
      y1="0"
      x2="15"
      y2="200"  />
   <line
      style="stroke:#000000;stroke-width:0.15"
      x1="7"
      y1="2.5"
      x2="10"
      y2="2.5"  />
   <line
      style="stroke:#000000;stroke-width:0.15"
      x1="7"
      y1="5"
      x2="10"
      y2="5"  />
   <line
      style="stroke:#000000;stroke-width:0.15"
      x1="7"
      y1="7.5"
      x2="10"
      y2="7.5"  />
   <line
      style="stroke:#000000;stroke-width:0.4"
      x1="7"
      y1="10"
      x2="12"
      y2="10"  />
   <text
      style="font-style:normal;font-weight:normal;font-size:5.5px;font-family:sans-serif;direction:rtl;fill:#000000;stroke:none;"
      x="6.5"
      y="11.5">1</text>
   <line
      style="stroke:#000000;stroke-width:0.15"
      x1="7"
      y1="12.5"
      x2="10"
      y2="12.5"  />
   <line
      style="stroke:#000000;stroke-width:0.15"
      x1="7"
      y1="15"
      x2="10"
      y2="15"  />
   <line
      style="stroke:#000000;stroke-width:0.15"
      x1="7"
      y1="17.5"
      x2="10"
      y2="17.5"  />
   <line
      style="stroke:#000000;stroke-width:0.4"
      x1="7"
      y1="20"
      x2="12"
      y2="20"  />
   <text
      style="font-style:normal;font-weight:normal;font-size:5.5px;font-family:sans-serif;direction:rtl;fill:#000000;stroke:none;"
      x="6.5"
      y="21.5">2</text>
   <line
      style="stroke:#000000;stroke-width:0.15"
      x1="7"
      y1="22.5"
      x2="10"
      y2="22.5"  />
   <line
      style="stroke:#000000;stroke-width:0.15"
      x1="7"
      y1="25"
      x2="10"
      y2="25"  />
   <line
      style="stroke:#000000;stroke-width:0.15"
      x1="7"
      y1="27.5"
      x2="10"
      y2="27.5"  />
   <line
      style="stroke:#000000;stroke-width:0.4"
      x1="7"
      y1="30"
      x2="12"
      y2="30"  />
   <text
      style="font-style:normal;font-weight:normal;font-size:5.5px;font-family:sans-serif;direction:rtl;fill:#000000;stroke:none;"
      x="6.5"
      y="31.5">3</text>
   <line
      style="stroke:#000000;stroke-width:0.15"
      x1="7"
      y1="32.5"
      x2="10"
      y2="32.5"  />
   <line
      style="stroke:#000000;stroke-width:0.15"
      x1="7"
      y1="35"
      x2="10"
      y2="35"  />
   <line
      style="stroke:#000000;stroke-width:0.15"
      x1="7"
      y1="37.5"
      x2="10"
      y2="37.5"  />
   <line
      style="stroke:#000000;stroke-width:0.4"
      x1="7"
      y1="40"
      x2="12"
      y2="40"  />
   <text
      style="font-style:normal;font-weight:normal;font-size:5.5px;font-family:sans-serif;direction:rtl;fill:#000000;stroke:none;"
      x="6.5"
      y="41.5">4</text>
   <line
      style="stroke:#000000;stroke-width:0.15"
      x1="7"
      y1="42.5"
      x2="10"
      y2="42.5"  />
   <line
      style="stroke:#000000;stroke-width:0.15"
      x1="7"
      y1="45"
      x2="10"
      y2="45"  />
   <line
      style="stroke:#000000;stroke-width:0.15"
      x1="7"
      y1="47.5"
      x2="10"
      y2="47.5"  />
   <line
      style="stroke:#000000;stroke-width:0.4"
      x1="7"
      y1="50"
      x2="12"
      y2="50"  />
   <text
      style="font-style:normal;font-weight:normal;font-size:5.5px;font-family:sans-serif;direction:rtl;fill:#000000;stroke:none;"
      x="6.5"
      y="51.5">5</text>
   <line
      style="stroke:#000000;stroke-width:0.15"
      x1="7"
      y1="52.5"
      x2="10"
      y2="52.5"  />
   <line
      style="stroke:#000000;stroke-width:0.15"
      x1="7"
      y1="55"
      x2="10"
      y2="55"  />
   <line
      style="stroke:#000000;stroke-width:0.15"
      x1="7"
      y1="57.5"
      x2="10"
      y2="57.5"  />
   <line
      style="stroke:#000000;stroke-width:0.4"
      x1="7"
      y1="60"
      x2="12"
      y2="60"  />
   <text
      style="font-style:normal;font-weight:normal;font-size:5.5px;font-family:sans-serif;direction:rtl;fill:#000000;stroke:none;"
      x="6.5"
      y="61.5">6</text>
   <line
      style="stroke:#000000;stroke-width:0.15"
      x1="7"
      y1="62.5"
      x2="10"
      y2="62.5"  />
   <line
      style="stroke:#000000;stroke-width:0.15"
      x1="7"
      y1="65"
      x2="10"
      y2="65"  />
   <line
      style="stroke:#000000;stroke-width:0.15"
      x1="7"
      y1="67.5"
      x2="10"
      y2="67.5"  />
   <line
      style="stroke:#000000;stroke-width:0.4"
      x1="7"
      y1="70"
      x2="12"
      y2="70"  />
   <text
      style="font-style:normal;font-weight:normal;font-size:5.5px;font-family:sans-serif;direction:rtl;fill:#000000;stroke:none;"
      x="6.5"
      y="71.5">7</text>
   <line
      style="stroke:#000000;stroke-width:0.15"
      x1="7"
      y1="72.5"
      x2="10"
      y2="72.5"  />
   <line
      style="stroke:#000000;stroke-width:0.15"
      x1="7"
      y1="75"
      x2="10"
      y2="75"  />
   <line
      style="stroke:#000000;stroke-width:0.15"
      x1="7"
      y1="77.5"
      x2="10"
      y2="77.5"  />
   <line
      style="stroke:#000000;stroke-width:0.4"
      x1="7"
      y1="80"
      x2="12"
      y2="80"  />
   <text
      style="font-style:normal;font-weight:normal;font-size:5.5px;font-family:sans-serif;direction:rtl;fill:#000000;stroke:none;"
      x="6.5"
      y="81.5">8</text>
   <line
      style="stroke:#000000;stroke-width:0.15"
      x1="7"
      y1="82.5"
      x2="10"
      y2="82.5"  />
   <line
      style="stroke:#000000;stroke-width:0.15"
      x1="7"
      y1="85"
      x2="10"
      y2="85"  />
   <line
      style="stroke:#000000;stroke-width:0.15"
      x1="7"
      y1="87.5"
      x2="10"
      y2="87.5"  />
   <line
      style="stroke:#000000;stroke-width:0.4"
      x1="7"
      y1="90"
      x2="12"
      y2="90"  />
   <text
      style="font-style:normal;font-weight:normal;font-size:5.5px;font-family:sans-serif;direction:rtl;fill:#000000;stroke:none;"
      x="6.5"
      y="91.5">9</text>
   <line
      style="stroke:#000000;stroke-width:0.15"
      x1="7"
      y1="92.5"
      x2="10"
      y2="92.5"  />
   <line
      style="stroke:#000000;stroke-width:0.15"
      x1="7"
      y1="95"
      x2="10"
      y2="95"  />
   <line
      style="stroke:#000000;stroke-width:0.15"
      x1="7"
      y1="97.5"
      x2="10"
      y2="97.5"  />
   <line
      style="stroke:#000000;stroke-width:0.4"
      x1="7"
      y1="100"
      x2="12"
      y2="100"  />
   <text
      style="font-style:normal;font-weight:normal;font-size:5.5px;font-family:sans-serif;direction:rtl;fill:#000000;stroke:none;"
      x="6.5"
      y="101.5">10</text>
   <line
      style="stroke:#000000;stroke-width:0.15"
      x1="7"
      y1="102.5"
      x2="10"
      y2="102.5"  />
   <line
      style="stroke:#000000;stroke-width:0.15"
      x1="7"
      y1="105"
      x2="10"
      y2="105"  />
   <line
      style="stroke:#000000;stroke-width:0.15"
      x1="7"
      y1="107.5"
      x2="10"
      y2="107.5"  />
   <line
      style="stroke:#000000;stroke-width:0.4"
      x1="7"
      y1="110"
      x2="12"
      y2="110"  />
   <text
      style="font-style:normal;font-weight:normal;font-size:5.5px;font-family:sans-serif;direction:rtl;fill:#000000;stroke:none;"
      x="6.5"
      y="111.5">11</text>
   <line
      style="stroke:#000000;stroke-width:0.15"
      x1="7"
      y1="112.5"
      x2="10"
      y2="112.5"  />
   <line
      style="stroke:#000000;stroke-width:0.15"
      x1="7"
      y1="115"
      x2="10"
      y2="115"  />
   <line
      style="stroke:#000000;stroke-width:0.15"
      x1="7"
      y1="117.5"
      x2="10"
      y2="117.5"  />
   <line
      style="stroke:#000000;stroke-width:0.4"
      x1="7"
      y1="120"
      x2="12"
      y2="120"  />
   <text
      style="font-style:normal;font-weight:normal;font-size:5.5px;font-family:sans-serif;direction:rtl;fill:#000000;stroke:none;"
      x="6.5"
      y="121.5">12</text>
   <line
      style="stroke:#000000;stroke-width:0.15"
      x1="7"
      y1="122.5"
      x2="10"
      y2="122.5"  />
   <line
      style="stroke:#000000;stroke-width:0.15"
      x1="7"
      y1="125"
      x2="10"
      y2="125"  />
   <line
      style="stroke:#000000;stroke-width:0.15"
      x1="7"
      y1="127.5"
      x2="10"
      y2="127.5"  />
   <line
      style="stroke:#000000;stroke-width:0.4"
      x1="7"
      y1="130"
      x2="12"
      y2="130"  />
   <text
      style="font-style:normal;font-weight:normal;font-size:5.5px;font-family:sans-serif;direction:rtl;fill:#000000;stroke:none;"
      x="6.5"
      y="131.5">13</text>
   <line
      style="stroke:#000000;stroke-width:0.15"
      x1="7"
      y1="132.5"
      x2="10"
      y2="132.5"  />
   <line
      style="stroke:#000000;stroke-width:0.15"
      x1="7"
      y1="135"
      x2="10"
      y2="135"  />
   <line
      style="stroke:#000000;stroke-width:0.15"
      x1="7"
      y1="137.5"
      x2="10"
      y2="137.5"  />
   <line
      style="stroke:#000000;stroke-width:0.4"
      x1="7"
      y1="140"
      x2="12"
      y2="140"  />
   <text
      style="font-style:normal;font-weight:normal;font-size:5.5px;font-family:sans-serif;direction:rtl;fill:#000000;stroke:none;"
      x="6.5"
      y="141.5">14</text>
   <line
      style="stroke:#000000;stroke-width:0.15"
      x1="7"
      y1="142.5"
      x2="10"
      y2="142.5"  />
   <line
      style="stroke:#000000;stroke-width:0.15"
      x1="7"
      y1="145"
      x2="10"
      y2="145"  />
   <line
      style="stroke:#000000;stroke-width:0.15"
      x1="7"
      y1="147.5"
      x2="10"
      y2="147.5"  />
   <line
      style="stroke:#000000;stroke-width:0.4"
      x1="7"
      y1="150"
      x2="12"
      y2="150"  />
   <text
      style="font-style:normal;font-weight:normal;font-size:5.5px;font-family:sans-serif;direction:rtl;fill:#000000;stroke:none;"
      x="6.5"
      y="151.5">15</text>
   <rect
      style="fill:#996633;stroke:#000000;stroke-width:1.0;"
      id="stopper"
      width="30"
      height="8.5"
      x="-7.5"
      y="-8.5" />
   <rect
      style="fill:#ffffff;stroke:#000000;stroke-width:0.5;"
      id="exitTube"
      width="1.6"
      height="25"
      x="6.7"
      y="-25" />
   <circle
      style="fill:#ffffff;stroke:#000000;stroke-width:0.5;"
      id="exitCircle"
      cx="7.5"
      cy="-16"
      r="3" />
   <rect
      style="fill:#ffffff;stroke:#000000;stroke-width:0.5;"
      id="exitValve"
      width="14"
      height="2.6"
      x="0.5"
      y="-17.3" />
   <rect
      style="fill:#ffffff;stroke:#000000;stroke-width:1.2;"
      id="electricBox"
      width="55"
      height="30"
      x="-85"
      y="16" />
   <rect
      style="fill:#ff0000;stroke:#000000;stroke-width:0.8;"
      id="electricIgnite"
      width="25"
      height="12.5"
      x="-75"
      y="24" />
   <path
      style="fill:#000000;stroke:none;"
       d="m -63.5,26 -1.4,5.1 2.7,-0.7 -1,5.2 3.4,-7.4 -2.5,0.5 1,-2.8 z"
      id="electricFlash" />
   <circle
      style="fill:#000000;stroke:#000000;stroke-width:1.2;"
      id="topOut"
      cx="-37"
      cy="25"
      r="1.2" />
   <circle
      style="fill:#000000;stroke:#000000;stroke-width:1.2;"
      id="lowOut"
      cx="-37"
      cy="35"
      r="1.2" />
   <path
      style="fill:none;stroke:#ffcc00;stroke-width:1.8;stroke-linecap:round;"
      d="m 6,4 c 1.5,0.6 1.5,0.6 3,0"
      id="spark"
      display="none" />
   <path
      style="fill:none;stroke:#000000;stroke-width:0.8;stroke-linecap:butt;"
      d="m -37,25 h 14.5 V -5.8 H 13.1 V 2.1 L 9,4"
      id="cableTop" />
   <path
      style="fill:none;stroke:#000000;stroke-width:0.8;stroke-linecap:butt;"
      d="m -37,35 h 20 V -2.6 H 1.9 V 2.1 L 6,4"
      id="cableLow" />
   <rect
      style="fill:#808080;stroke:#000000;stroke-width:0.37002522"
      id="hTube"
      width="1.7013965"
      height="12.875885"
      x="-97.386887"
      y="97.752319" />
   <path
      style="fill:#ff0000;stroke:#000000;stroke-width:2;"
      d="m -462.6,404.8 c -55.4,0 -100,44.6 -100,100 v 369.2 h 200 V 504.8 c 0,-55.4 -44.6,-100 -100,-100 z"
      transform="scale(0.26458333)"
      id="hbottle" />
   <rect
      id="hcapholder"
      style="fill:#ff0000;stroke:#000000;stroke-width:0.5;"
      y="101.8"
      x="-135.6"
      height="8.9"
      width="26.5" />
   <rect
      width="6.9"
      height="18.5"
      x="-125.9"
      y="83.3"
      style="fill:#666666;stroke:#000000;stroke-width:0.5;"
      id="hbttle" />
   <rect
      width="3.9"
      height="7.1"
      x="-118.9"
      y="88.6"
      style="fill:#808080;stroke:#000000;stroke-width:0.5;"
      id="hwind" />
   <rect
      width="18.5"
      height="4"
      ry="2"
      x="-131.7"
      y="79.3"
      style="fill:#808080;stroke:#000000;stroke-width:0.5;"
      id="hopenbttle" />
   <rect
      style="fill:#808080;stroke:#000000;stroke-width:0.5;stroke-linecap:round;"
      id="hvtube"
      width="19.6"
      height="2.8"
      x="-114.9"
      y="90.4" />
   <rect
      style="fill:#808080;stroke:#000000;stroke-width:0.5;stroke-linecap:round;"
      id="hreduce"
      width="6.5"
      height="11.4"
      x="-99.8"
      y="86.5" />
   <circle
      style="fill:#808080;stroke:#000000;stroke-width:0.5;stroke-linecap:round;"
      id="hpressure"
      cx="-96.4"
      cy="79.9"
      r="8.8" />
   <circle
      style="fill:#ffffff;stroke:none;stroke-width:0.6;stroke-linecap:round;"
      id="hScale"
      cx="-96.4"
      cy="79.9"
      r="7.4" />
   <circle
      style="fill:#ffffff;stroke:#000000;stroke-width:0.5"
      id="hydrogenCircle"
      cx="-96.5"
      cy="104"
      r="3" />
   <rect
      style="fill:#ffffff;stroke:#000000;stroke-width:0.5"
      id="hydogenValve"
      width="14"
      height="2.6"
      x="-103.5"
      y="102.7" />
   <path
      style="fill:none;stroke:#000000;stroke-width:0.6;stroke-linecap:butt;"
      d="m -102.3,75.9 6.2,4"
      id="hZeiger" />
   <rect
      style="fill:#808080;stroke:#000000;stroke-width:0.4"
      id="oTube"
      width="1.7"
      height="12.9"
      x="-112.6"
      y="97.7"
      transform="scale(-1,1)" />
   <path
      style="fill:#0000ff;stroke:#000000;stroke-width:0.5"
      d="m 137.6,107 c -14.7,0 -26.5,11.8 -26.5,26.5 v 98.1 H 164 v -98.1 c 0,-14.7 -11.8,-26.5 -26.5,-26.5 z"
      id="obottle" />
   <rect
      id="ocapholder"
      style="fill:#0000ff;stroke:#000000;stroke-width:0.5;"
      y="101.7"
      x="-150.9"
      height="8.9"
      width="26.5"
      transform="scale(-1,1)" />
   <rect
      width="6.9"
      height="18.5"
      x="-141.1"
      y="83.2"
      style="fill:#666666;stroke:#000000;stroke-width:0.5;"
      id="obttle"
      transform="scale(-1,1)" />
   <rect
      width="3.9"
      height="7.1"
      x="-134.1"
      y="88.5"
      style="fill:#808080;stroke:#000000;stroke-width:0.5;"
      id="owind"
      transform="scale(-1,1)" />
   <rect
      width="18.5"
      height="4"
      ry="2"
      x="-146.9"
      y="79.3"
      style="fill:#808080;stroke:#000000;stroke-width:0.5;"
      id="oopenbttle"
      transform="scale(-1,1)" />
   <rect
      style="fill:#808080;stroke:#000000;stroke-width:0.5;stroke-linecap:round;"
      id="ovtube"
      width="19.6"
      height="2.8"
      x="-130.2"
      y="90.4"
      transform="scale(-1,1)" />
   <rect
      style="fill:#808080;stroke:#000000;stroke-width:0.5;stroke-linecap:round;"
      id="oreduce"
      width="6.5"
      height="11.4"
      x="-115"
      y="86.5"
      transform="scale(-1,1)" />
   <circle
      style="fill:#808080;stroke:#000000;stroke-width:0.5;stroke-linecap:round;"
      id="opressure"
      cx="-111.7"
      cy="79.8"
      r="8.8"
      transform="scale(-1,1)" />
   <circle
      style="fill:#ffffff;stroke:none;stroke-width:0.6;stroke-linecap:round;"
      id="oScale"
      cx="-111.7"
      cy="79.8"
      r="7.4"
      transform="scale(-1,1)" />
   <circle
      style="fill:#ffffff;stroke:#000000;stroke-width:0.5"
      id="oxygenCircle"
      cx="-111.7"
      cy="104"
      r="3"
      transform="scale(-1,1)" />
   <rect
      style="fill:#ffffff;stroke:#000000;stroke-width:0.5"
      id="oxygenValve"
      width="14"
      height="2.6"
      x="-118.8"
      y="102.7"
      transform="scale(-1,1)" />
   <path
      style="fill:none;stroke:#000000;stroke-width:0.50010318;stroke-linecap:butt;"
      d="m 105.8,75.8 5.5,4"
      id="oZeiger" />
   <rect
      style="fill:#604020;stroke:#000000;stroke-width:0.35326406;stroke-linecap:round;"
      id="tableTop"
      width="373"
      height="9"
      x="-182"
      y="230" />
   <path
      style="fill:none;stroke:#cc5400;stroke-width:3;stroke-linecap:butt;"
      d="m -96.5,110.4 c -0.4,27 17.64,26.55 28.86,30.51 11.22,3.96 22.44,14.19 25.74,23.10 3.30,8.91 6.93,29.7 7.92,35.97 0.99,6.27 7.92,15.51 14.19,17.16 6.27,1.65 14.19,-0.66 19.47,-5.28"
      id="hSchlauch" />
   <path
      style="fill:none;stroke:#cc5400;stroke-width:3;stroke-linecap:butt;"
      d="m 111.74,110.32 c 0.36,26.95 -18.47,26.78 -29.69,30.74 -11.22,3.96 -18.88,16.54 -23.08,25.06 -4.28,8.68 -8.82,17.66 -11.79,25.75 -3.26,8.89 -2.24,22.16 -11.99,27.48 -7.03,3.83 -15.98,-1.79 -21.26,-6.41"
      id="oSchlauch" />
   <path
      style="fill:#b3b3b3;stroke:#b3b3b3;stroke-width:2;stroke-linecap:butt;"
      d="M -0.33,211.84 3.5,208.65"
      id="hgasouttube" />
   <path
      style="fill:#b3b3b3;stroke:#b3b3b3;stroke-width:2;stroke-linecap:butt;"
      d="M 13.91,212.96 10,209.8"
      id="ogasouttube" />
</svg>
